<svg xmlns="http://www.w3.org/2000/svg" xmlns:xlink="http://www.w3.org/1999/xlink" width="48" zoomAndPan="magnify" viewBox="0 0 36 36.000001" height="48" preserveAspectRatio="xMidYMid meet" version="1.0"><defs><clipPath id="8098955bad"><path d="M 5 14 L 22 14 L 22 32.296875 L 5 32.296875 Z M 5 14 " clip-rule="nonzero"/></clipPath><clipPath id="b2ec6e291c"><path d="M 5 3.832031 L 29 3.832031 L 29 25 L 5 25 Z M 5 3.832031 " clip-rule="nonzero"/></clipPath><clipPath id="d3442b1bd7"><path d="M 5.53125 12 L 23 12 L 23 30.714844 L 5.53125 30.714844 Z M 5.53125 12 " clip-rule="nonzero"/></clipPath><clipPath id="8b2c0b36d8"><path d="M 6 2.253906 L 30 2.253906 L 30 24 L 6 24 Z M 6 2.253906 " clip-rule="nonzero"/></clipPath></defs><g clip-path="url(#8098955bad)"><path fill="#ffffff" d="M 20.777344 24.210938 C 20.558594 23.996094 20.242188 23.925781 20.152344 23.765625 C 20.015625 23.289062 19.785156 22.863281 19.457031 22.488281 C 19.132812 22.113281 18.738281 21.828125 18.285156 21.625 C 18.71875 20.605469 18.996094 19.542969 19.113281 18.441406 C 19.125 18.300781 19.089844 18.179688 19 18.070312 C 18.914062 17.960938 18.796875 17.902344 18.660156 17.886719 C 18.519531 17.875 18.398438 17.914062 18.289062 18 C 18.183594 18.089844 18.121094 18.203125 18.105469 18.339844 C 17.992188 19.402344 17.71875 20.421875 17.285156 21.398438 C 16.59375 21.359375 15.929688 21.46875 15.292969 21.734375 C 15.167969 21.789062 15.082031 21.882812 15.03125 22.015625 C 14.984375 22.144531 14.988281 22.269531 15.042969 22.398438 C 15.097656 22.523438 15.191406 22.609375 15.320312 22.660156 C 15.449219 22.710938 15.574219 22.710938 15.703125 22.65625 C 16.4375 22.351562 17.183594 22.324219 17.941406 22.578125 C 18.90625 23 19.753906 24.515625 18.945312 25.636719 C 18.25 24.871094 17.386719 24.457031 16.351562 24.390625 C 16.214844 24.382812 16.09375 24.425781 15.992188 24.519531 C 15.886719 24.609375 15.832031 24.726562 15.820312 24.863281 C 15.8125 25 15.855469 25.121094 15.945312 25.226562 C 16.035156 25.332031 16.148438 25.390625 16.285156 25.402344 C 16.308594 25.402344 18.359375 25.554688 18.511719 27.144531 C 18.550781 27.8125 18.339844 28.386719 17.886719 28.871094 C 17.445312 29.402344 16.707031 29.902344 16.082031 29.292969 C 16.128906 28.996094 16.257812 28.496094 16.640625 28.488281 C 16.78125 28.480469 16.894531 28.429688 16.992188 28.328125 C 17.085938 28.230469 17.132812 28.109375 17.128906 27.972656 C 17.128906 27.832031 17.078125 27.714844 16.976562 27.621094 C 16.878906 27.523438 16.761719 27.476562 16.621094 27.476562 C 15.4375 27.5 15.078125 28.734375 15.050781 29.433594 C 14.683594 31.511719 11.894531 31.800781 11.382812 29.710938 C 11.207031 28.277344 11.535156 26.972656 12.375 25.796875 C 13.386719 24.433594 14.945312 22.363281 15.078125 20.054688 L 15.40625 16.863281 C 15.433594 16.605469 15.523438 16.371094 15.679688 16.167969 C 15.835938 15.960938 16.035156 15.808594 16.277344 15.714844 C 16.519531 15.617188 16.765625 15.59375 17.023438 15.636719 C 17.277344 15.679688 17.503906 15.785156 17.699219 15.953125 C 18.078125 16.253906 18.054688 17.035156 18.703125 16.847656 C 18.835938 16.804688 18.933594 16.71875 18.996094 16.59375 C 19.058594 16.46875 19.066406 16.339844 19.023438 16.207031 C 18.214844 13.78125 14.644531 14.234375 14.398438 16.761719 L 14.066406 19.984375 C 13.992188 21.789062 12.632812 23.792969 11.828125 24.828125 C 8.328125 23.257812 6.023438 19.351562 6.03125 15.449219 C 6 14.988281 6.257812 14.242188 5.59375 14.164062 C 5.457031 14.15625 5.332031 14.195312 5.226562 14.285156 C 5.121094 14.375 5.0625 14.488281 5.050781 14.628906 C 4.972656 15.753906 5.058594 16.867188 5.304688 17.96875 C 5.550781 19.070312 5.949219 20.109375 6.5 21.097656 C 7.046875 22.082031 7.726562 22.96875 8.535156 23.753906 C 9.339844 24.542969 10.246094 25.199219 11.242188 25.722656 C 9.835938 27.984375 9.730469 32.046875 13.160156 32.160156 C 13.746094 32.152344 14.28125 31.980469 14.765625 31.648438 C 15.25 31.3125 15.597656 30.871094 15.808594 30.324219 C 16.113281 30.503906 16.445312 30.59375 16.800781 30.585938 C 17.726562 30.617188 18.839844 29.554688 19.25 28.613281 C 21.476562 28.628906 22.53125 25.585938 20.777344 24.210938 Z M 20.5625 26.609375 C 20.394531 27.125 20.046875 27.445312 19.519531 27.566406 C 19.550781 27.242188 19.523438 26.921875 19.4375 26.605469 C 19.875 26.191406 20.140625 25.6875 20.238281 25.09375 C 20.4375 25.292969 20.5625 25.53125 20.621094 25.804688 C 20.679688 26.078125 20.660156 26.347656 20.5625 26.609375 Z M 20.5625 26.609375 " fill-opacity="1" fill-rule="nonzero"/></g><g clip-path="url(#b2ec6e291c)"><path fill="#ffffff" d="M 16.632812 3.832031 C 15.992188 3.832031 15.359375 3.886719 14.730469 3.992188 C 14.101562 4.09375 13.484375 4.25 12.878906 4.457031 C 12.273438 4.660156 11.691406 4.917969 11.128906 5.21875 C 10.566406 5.519531 10.035156 5.867188 9.527344 6.257812 C 9.023438 6.648438 8.554688 7.074219 8.117188 7.542969 C 7.683594 8.011719 7.289062 8.511719 6.9375 9.042969 C 6.585938 9.578125 6.28125 10.132812 6.019531 10.714844 C 5.761719 11.300781 5.550781 11.898438 5.390625 12.519531 C 5.355469 12.652344 5.375 12.777344 5.445312 12.894531 C 5.519531 13.015625 5.621094 13.089844 5.753906 13.125 C 5.886719 13.160156 6.011719 13.144531 6.132812 13.074219 C 6.253906 13.007812 6.332031 12.90625 6.367188 12.773438 C 6.515625 12.207031 6.707031 11.660156 6.945312 11.128906 C 7.183594 10.597656 7.460938 10.085938 7.78125 9.601562 C 8.105469 9.113281 8.464844 8.660156 8.859375 8.230469 C 9.257812 7.804688 9.6875 7.414062 10.148438 7.058594 C 10.609375 6.699219 11.09375 6.386719 11.609375 6.109375 C 12.121094 5.832031 12.652344 5.601562 13.207031 5.414062 C 13.757812 5.226562 14.320312 5.082031 14.894531 4.988281 C 15.46875 4.894531 16.050781 4.84375 16.632812 4.84375 C 26.867188 4.871094 31.109375 18.054688 22.832031 24.046875 C 22.636719 24.191406 22.578125 24.378906 22.652344 24.609375 C 22.726562 24.839844 22.882812 24.957031 23.125 24.960938 C 32.628906 18.753906 27.996094 3.867188 16.632812 3.832031 Z M 16.632812 3.832031 " fill-opacity="1" fill-rule="nonzero"/></g><g clip-path="url(#d3442b1bd7)"><path fill="#15f5ba" d="M 21.570312 22.632812 C 21.351562 22.414062 21.03125 22.34375 20.945312 22.1875 C 20.808594 21.707031 20.574219 21.28125 20.25 20.90625 C 19.921875 20.53125 19.53125 20.246094 19.074219 20.046875 C 19.511719 19.023438 19.785156 17.960938 19.902344 16.859375 C 19.917969 16.722656 19.878906 16.597656 19.792969 16.488281 C 19.703125 16.382812 19.589844 16.320312 19.449219 16.308594 C 19.3125 16.292969 19.1875 16.332031 19.082031 16.421875 C 18.972656 16.507812 18.910156 16.621094 18.898438 16.761719 C 18.78125 17.820312 18.507812 18.839844 18.074219 19.816406 C 17.386719 19.777344 16.722656 19.890625 16.082031 20.152344 C 15.957031 20.210938 15.871094 20.304688 15.824219 20.433594 C 15.773438 20.5625 15.777344 20.6875 15.835938 20.816406 C 15.890625 20.941406 15.980469 21.03125 16.109375 21.082031 C 16.238281 21.132812 16.367188 21.128906 16.492188 21.074219 C 17.230469 20.769531 17.976562 20.742188 18.730469 20.996094 C 19.695312 21.421875 20.542969 22.9375 19.738281 24.054688 C 19.039062 23.289062 18.175781 22.875 17.144531 22.808594 C 17.003906 22.804688 16.886719 22.84375 16.78125 22.9375 C 16.679688 23.027344 16.621094 23.144531 16.613281 23.28125 C 16.605469 23.421875 16.644531 23.542969 16.734375 23.644531 C 16.824219 23.75 16.9375 23.808594 17.078125 23.820312 C 17.097656 23.820312 19.152344 23.976562 19.304688 25.566406 C 19.339844 26.230469 19.132812 26.804688 18.675781 27.289062 C 18.238281 27.820312 17.5 28.320312 16.875 27.714844 C 16.917969 27.417969 17.046875 26.914062 17.433594 26.90625 C 17.570312 26.902344 17.6875 26.847656 17.78125 26.75 C 17.878906 26.648438 17.921875 26.527344 17.921875 26.390625 C 17.917969 26.253906 17.867188 26.136719 17.769531 26.039062 C 17.667969 25.941406 17.550781 25.894531 17.414062 25.894531 C 16.226562 25.917969 15.871094 27.152344 15.839844 27.851562 C 15.472656 29.929688 12.6875 30.21875 12.171875 28.128906 C 11.996094 26.695312 12.328125 25.390625 13.167969 24.214844 C 14.179688 22.851562 15.738281 20.78125 15.867188 18.476562 L 16.195312 15.28125 C 16.222656 15.023438 16.316406 14.792969 16.472656 14.585938 C 16.628906 14.378906 16.828125 14.226562 17.066406 14.132812 C 17.308594 14.039062 17.558594 14.011719 17.8125 14.054688 C 18.066406 14.097656 18.292969 14.203125 18.488281 14.375 C 18.871094 14.671875 18.84375 15.457031 19.496094 15.265625 C 19.625 15.222656 19.722656 15.136719 19.785156 15.011719 C 19.847656 14.886719 19.859375 14.757812 19.8125 14.625 C 19.003906 12.199219 15.4375 12.652344 15.1875 15.179688 L 14.859375 18.402344 C 14.78125 20.207031 13.425781 22.210938 12.617188 23.246094 C 9.121094 21.675781 6.816406 17.769531 6.820312 13.867188 C 6.789062 13.40625 7.046875 12.660156 6.382812 12.582031 C 6.246094 12.574219 6.125 12.613281 6.019531 12.703125 C 5.910156 12.792969 5.851562 12.910156 5.839844 13.046875 C 5.761719 14.171875 5.847656 15.285156 6.09375 16.386719 C 6.339844 17.488281 6.738281 18.53125 7.289062 19.515625 C 7.839844 20.5 8.515625 21.386719 9.324219 22.171875 C 10.132812 22.960938 11.035156 23.617188 12.03125 24.140625 C 10.628906 26.402344 10.523438 30.464844 13.949219 30.578125 C 14.539062 30.570312 15.074219 30.402344 15.554688 30.066406 C 16.039062 29.730469 16.386719 29.289062 16.597656 28.742188 C 16.902344 28.925781 17.234375 29.011719 17.589844 29.007812 C 18.515625 29.035156 19.628906 27.972656 20.039062 27.03125 C 22.265625 27.046875 23.320312 24.003906 21.570312 22.632812 Z M 21.351562 25.027344 C 21.183594 25.542969 20.835938 25.863281 20.308594 25.988281 C 20.339844 25.660156 20.3125 25.339844 20.226562 25.023438 C 20.664062 24.609375 20.929688 24.105469 21.03125 23.511719 C 21.226562 23.710938 21.355469 23.949219 21.414062 24.222656 C 21.472656 24.496094 21.449219 24.765625 21.351562 25.027344 Z M 21.351562 25.027344 " fill-opacity="1" fill-rule="nonzero"/></g><g clip-path="url(#8b2c0b36d8)"><path fill="#15f5ba" d="M 17.421875 2.253906 C 16.785156 2.253906 16.148438 2.304688 15.519531 2.410156 C 14.890625 2.511719 14.273438 2.667969 13.667969 2.875 C 13.066406 3.082031 12.480469 3.335938 11.917969 3.636719 C 11.359375 3.9375 10.824219 4.285156 10.320312 4.675781 C 9.8125 5.066406 9.34375 5.496094 8.910156 5.960938 C 8.476562 6.429688 8.082031 6.929688 7.730469 7.460938 C 7.378906 7.996094 7.070312 8.550781 6.8125 9.136719 C 6.550781 9.71875 6.339844 10.320312 6.179688 10.9375 C 6.148438 11.070312 6.167969 11.195312 6.238281 11.316406 C 6.308594 11.433594 6.410156 11.507812 6.542969 11.542969 C 6.675781 11.578125 6.804688 11.5625 6.921875 11.492188 C 7.042969 11.425781 7.121094 11.324219 7.160156 11.191406 C 7.304688 10.628906 7.496094 10.078125 7.734375 9.546875 C 7.972656 9.015625 8.253906 8.507812 8.574219 8.019531 C 8.894531 7.535156 9.253906 7.078125 9.652344 6.652344 C 10.046875 6.222656 10.476562 5.832031 10.9375 5.476562 C 11.398438 5.121094 11.886719 4.804688 12.398438 4.527344 C 12.914062 4.253906 13.445312 4.019531 13.996094 3.832031 C 14.546875 3.644531 15.109375 3.503906 15.6875 3.40625 C 16.261719 3.3125 16.839844 3.265625 17.421875 3.265625 C 27.65625 3.289062 31.902344 16.472656 23.621094 22.464844 C 23.425781 22.609375 23.367188 22.796875 23.441406 23.027344 C 23.515625 23.257812 23.675781 23.375 23.917969 23.378906 C 33.421875 17.171875 28.785156 2.285156 17.421875 2.253906 Z M 17.421875 2.253906 " fill-opacity="1" fill-rule="nonzero"/></g></svg>